<?xml version="1.0" encoding="UTF-8"?>
<svg width="24px" height="24px" stroke-width="1.5" viewBox="0 0 24 24" fill="none" xmlns="http://www.w3.org/2000/svg" color="#000000">
<path d="M21 15.5L21 8" stroke="#d97706" stroke-width="1.5" stroke-linecap="round" stroke-linejoin="round"></path>
<path d="M3 15.5L3 8" stroke="#d97706" stroke-width="1.5" stroke-linecap="round" stroke-linejoin="round"></path>
<path d="M12 22C7.28595 22 4.92893 22 3.46447 20.5355C2 19.0711 2 16.714 2 12C2 7.28595 2 4.92893 3.46447 3.46447C4.92893 2 7.28595 2 12 2C16.714 2 19.0711 2 20.5355 3.46447C22 4.92893 22 7.28595 22 12C22 16.714 22 19.0711 20.5355 20.5355C19.0711 22 16.714 22 12 22Z" stroke="#d97706" stroke-width="1.5"></path>
<path d="M12 19C13.6569 19 15 17.6569 15 16C15 14.3431 13.6569 13 12 13C10.3431 13 9 14.3431 9 16C9 17.6569 10.3431 19 12 19Z" stroke="#d97706" stroke-width="1.5"></path>
<path d="M9 7L9 10" stroke="#d97706" stroke-width="1.5" stroke-linecap="round"></path>
<path d="M15 7L15 10" stroke="#d97706" stroke-width="1.5" stroke-linecap="round"></path>
</svg>